<svg width="24" height="24" viewBox="0 0 24 24" fill="none" xmlns="http://www.w3.org/2000/svg">
<path d="M16.5112 2.41047C17.592 1.5372 18.8025 1.48418 20.1251 1.50272C20.8093 1.51231 21.1513 1.51712 21.4257 1.62353C21.8611 1.79237 22.2076 2.13892 22.3765 2.57428C22.4829 2.84868 22.4876 3.19074 22.4973 3.87484C22.5159 5.19747 22.4628 6.40801 21.5895 7.48881C20.8542 8.39894 19.5902 8.87452 18.982 9.87912C18.5177 10.6461 18.734 11.4404 18.9335 12.2577L20.4266 18.3772C20.7242 19.5968 20.4978 20.3784 19.6451 21.2311C19.1913 21.6849 18.8139 21.6619 18.446 21.0755L13.9398 13.8957L11.7878 15.6063C11.0075 16.2266 10.6174 16.5367 10.4124 16.9732C9.9322 17.9953 10.2371 19.5305 10.2526 20.6387C10.2612 21.2512 9.73189 22.4585 8.9829 22.4992C8.52049 22.5244 8.3633 21.9713 8.21395 21.6318L6.77607 18.3635C6.4322 17.5819 6.41811 17.5678 5.63649 17.224L2.36818 15.7861C2.02871 15.6367 1.47566 15.4795 1.50083 15.0171C1.54159 14.2681 2.74875 13.7388 3.36125 13.7474C4.46954 13.763 6.00476 14.0678 7.0269 13.5876C7.46333 13.3826 7.77345 12.9925 8.3937 12.2122L10.1043 10.0602L2.92454 5.55404C2.33819 5.18604 2.31517 4.80864 2.76881 4.35501C3.62159 3.50224 4.40326 3.27583 5.62273 3.57338L11.7423 5.06654C12.5597 5.26598 13.3539 5.48234 14.1209 5.01797C15.1255 4.4098 15.601 3.14587 16.5112 2.41047Z" stroke="white" stroke-width="1.5" stroke-linecap="round" stroke-linejoin="round"/>
</svg>
