<svg width="28" height="28" viewBox="0 0 28 28" fill="none" xmlns="http://www.w3.org/2000/svg">
<path d="M2.29999 3.6V24.4C2.29999 25.6256 2.29999 26.2385 2.68074 26.6192C3.06151 27 3.67433 27 4.89999 27H23.1C24.3256 27 24.9384 27 25.3192 26.6192C25.7 26.2385 25.7 25.6256 25.7 24.4V3.6" stroke="white" stroke-width="1.5" stroke-linecap="round" stroke-linejoin="round"/>
<path d="M12.05 8.8V10.75M12.05 10.75V12.7M12.05 10.75H15.95M15.95 8.8V10.75M15.95 10.75V12.7" stroke="white" stroke-width="1.5" stroke-linecap="round" stroke-linejoin="round"/>
<path d="M16.6 27V21.7999C16.6 20.364 15.436 19.1999 14 19.1999C12.564 19.1999 11.4 20.364 11.4 21.7999V27" stroke="white" stroke-width="1.5" stroke-linecap="round" stroke-linejoin="round"/>
<path d="M1 3.6H8.8C9.63187 2.07545 11.6466 1 14 1C16.3534 1 18.3681 2.07545 19.2 3.6H27" stroke="white" stroke-width="1.5" stroke-linecap="round" stroke-linejoin="round"/>
<path d="M6.20001 8.8H7.50001M6.20001 14H7.50001M6.20001 19.2H7.50001" stroke="white" stroke-width="1.5" stroke-linecap="round" stroke-linejoin="round"/>
<path d="M20.5 8.8H21.8M20.5 14H21.8M20.5 19.2H21.8" stroke="white" stroke-width="1.5" stroke-linecap="round" stroke-linejoin="round"/>
</svg>
