<svg width="27" height="27" viewBox="0 0 27 27" fill="none" xmlns="http://www.w3.org/2000/svg">
<path d="M1.27066 5.53529L13.6054 1L25.9805 5.61009V24.21L13.4511 25.9553L1 24.2424C1.06577 19.7046 1.1307 15.1685 1.19479 10.6341L1.27066 5.53529Z" stroke="white" stroke-width="1.7" stroke-miterlimit="10"/>
<path d="M1.37439 10.6041L13.489 6.18604L25.6593 10.4521" stroke="white" stroke-width="1.7" stroke-miterlimit="10"/>
<path d="M1.27066 18.0466C1.64581 18.5088 2.1557 18.8466 2.73162 19.0143C3.30753 19.1821 3.9218 19.1718 4.49161 18.9849C5.06142 18.798 5.55939 18.4434 5.91841 17.9689C6.27743 17.4944 6.48024 16.9228 6.49951 16.3312C7.30648 17.902 8.20703 19.0738 9.11519 18.999C10.4256 18.8993 10.886 16.2864 12.0496 16.3312C13.2133 16.3761 13.4915 18.9317 14.64 19.0265C15.2699 19.0788 16.049 18.3782 17.0103 16.3312C16.1856 14.925 16.4487 13.2969 17.453 12.4966C18.1487 11.9381 19.2238 11.7685 19.9473 12.1525C21.1489 12.7783 21.6826 14.9774 20.5265 17.3111C20.6974 17.8308 21.031 18.2839 21.4793 18.6052C21.9277 18.9265 22.4677 19.0996 23.0221 19.0996C23.5764 19.0996 24.1165 18.9265 24.5649 18.6052C25.0132 18.2839 25.3467 17.8308 25.5176 17.3111C25.5176 18.8071 25.5176 20.303 25.5176 21.799L13.4915 22.8661L1.30608 21.9087C1.29427 20.6238 1.28247 19.3365 1.27066 18.0466Z" stroke="white" stroke-width="1.7" stroke-miterlimit="10"/>
</svg>
