<svg width="40" height="43" viewBox="0 0 40 43" fill="none" xmlns="http://www.w3.org/2000/svg">
<path d="M8.19827 24.9761C10.535 24.6307 12.6601 23.4115 14.1564 21.5577C10.632 23.3438 7.24238 24.6813 3.94116 21.5278C7.60451 22.2969 10.8973 21.2799 14.0006 19.31L13.2638 19.5066L12.4216 19.7459C10.4159 20.3499 8.31669 20.5687 6.23183 20.3911C3.24641 20.139 1.06942 17.8273 0.412547 14.0456C3.11164 17.259 6.40026 18.4084 10.3373 17.729C5.61285 16.7205 1.34315 15.0968 0.231513 9.5845C-0.433785 6.30277 0.408385 2.34591 2.04216 0.521301C1.50318 3.05096 1.73476 5.39261 3.03167 7.50351C3.84881 8.76713 4.77911 9.95152 5.81076 11.0416C5.6596 9.27197 6.12774 7.50485 7.13294 6.05067C7.06276 6.93804 7.06276 7.82969 7.13294 8.71707C7.50769 10.9861 8.87194 12.6611 10.5731 14.0542C11.4152 14.7507 12.4216 15.2677 13.289 15.9471C14.3305 16.7294 15.3155 17.5862 16.2366 18.511C16.5857 18.8727 16.8195 19.3328 16.9074 19.8312C16.9952 20.3297 16.9331 20.8434 16.7292 21.3056C15.466 24.5958 10.9268 26.4162 8.19827 24.9761ZM7.44874 14.3875L3.23799 11.0502C4.16857 12.768 5.5918 13.7379 7.44874 14.3875Z" fill="#63AB45"/>
<path d="M31.707 24.9889C29.3405 25.9205 27.3825 25.4163 25.5509 24.3223L23.9255 26.8606L23.8287 26.7708C24.1992 25.4889 24.6287 24.2326 24.9235 22.9251C25.2511 21.4161 25.0702 19.8391 24.4098 18.4469C24.3421 18.3437 24.2962 18.2274 24.275 18.1053C24.2539 17.9832 24.2578 17.858 24.2867 17.7376C24.3156 17.6171 24.3687 17.5041 24.4428 17.4055C24.5169 17.307 24.6103 17.2251 24.7171 17.165C25.5593 16.5667 26.4646 16.0198 27.2899 15.3745C28.4432 14.544 29.5301 13.6224 30.5406 12.6184C32.2249 10.8194 32.9997 8.65725 32.3849 5.95666C33.6102 7.55479 33.7829 9.22984 33.606 11.204C36.6251 8.17012 38.2926 4.90549 37.4294 0.67514C39.0421 2.10662 39.9305 6.73009 39.1642 9.81953C37.901 15.007 33.9387 16.7718 29.2858 17.6393C31.7617 18.84 35.884 17.306 38.9326 14.0755C38.6884 17.8529 36.2251 20.2843 32.5112 20.4168C30.2269 20.4692 27.9531 20.0866 25.8077 19.2887C27.492 21.1432 32.1744 22.0619 35.964 21.3269C33.766 23.9335 31.2185 24.0361 25.8246 21.6431C27.4457 23.4507 29.1974 24.6428 31.707 24.9889ZM36.263 10.8536C35.6019 11.4988 34.9745 12.1868 34.2713 12.7765C33.5681 13.3662 32.8018 13.8576 32.0607 14.3875C32.98 14.162 33.8365 13.7265 34.5648 13.114C35.2931 12.5016 35.8739 11.7285 36.263 10.8536Z" fill="#63AB45"/>
<path d="M29.45 41.0002C28.3467 42.0514 26.9656 42.4231 25.5592 42.7094C24.0021 43.0741 22.3864 43.0989 20.8192 42.7821C19.2519 42.4653 17.7688 41.8143 16.4682 40.872C12.0427 37.7441 11.3143 31.8344 14.8302 27.3178C15.4029 26.5828 16.0934 25.9504 16.6914 25.224C17.5335 24.2027 18.3083 23.1387 19.0578 22.1687C18.9623 22.7591 18.7896 23.334 18.5441 23.878C17.8174 25.1081 17.026 26.2978 16.1735 27.4417C14.986 29.0313 13.887 30.6679 13.7565 32.7147C13.7383 33.7402 13.8965 34.7611 14.2239 35.7315C14.3014 34.5849 14.442 33.4437 14.6449 32.313C15.0955 30.3389 16.3545 28.8091 17.622 27.305C18.6112 26.1902 19.3319 24.8576 19.7274 23.4122C19.9456 22.6167 20.0022 21.7846 19.8936 20.9662C19.785 20.1479 19.5136 19.3605 19.0957 18.652C18.7589 18.0708 18.3673 17.5196 17.9799 16.9727C16.9525 15.5113 16.4682 13.9815 17.4872 12.2723C16.5566 12.2723 16.0429 12.6996 15.4366 13.943C15.2218 12.9047 15.685 11.9732 16.7924 11.2125C18.3841 10.1229 21.1169 9.95626 22.4727 10.9476C23.2685 11.5288 24.397 11.9689 24.0475 13.1739C23.3798 12.9918 22.6955 12.8786 22.0053 12.8363C21.8188 12.8257 21.6324 12.858 21.4599 12.9308C21.2875 13.0037 21.1335 13.1152 21.0095 13.257C20.8856 13.3988 20.7949 13.5673 20.7442 13.7497C20.6935 13.9322 20.6842 14.1239 20.7169 14.3105C19.7694 13.2465 19.9589 12.7808 21.7864 11.5629C21.4202 11.3724 21.003 11.3077 20.5975 11.3786C20.1919 11.4495 19.8201 11.6522 19.5378 11.9561C19.2434 12.2463 19.0576 12.6313 19.0123 13.0453C18.9669 13.4593 19.0649 13.8764 19.2894 14.2251C19.6419 14.7619 20.0499 15.2589 20.5063 15.7078C24.0476 19.3357 24.1697 23.4677 20.7926 27.2708C19.8242 28.3604 18.7883 29.4073 17.7441 30.4115C13.9291 34.1376 15.5629 38.8081 19.4284 40.7951C22.439 42.3334 25.5634 42.2949 28.692 41.2224C28.9825 41.1797 29.2184 41.0857 29.45 41.0002Z" fill="#63AB45"/>
<path d="M24.4686 34.8769C24.2834 33.3685 25.2603 32.4327 26.7804 32.5779C27.2356 32.6281 27.675 32.7763 28.0694 33.0124C28.4637 33.2485 28.8039 33.5673 29.0673 33.9474C29.3307 34.3275 29.5112 34.7602 29.5968 35.2167C29.6824 35.6732 29.6711 36.143 29.5637 36.5947C29.4753 37.022 29.3195 37.4108 29.1426 37.9748C31.0796 36.8468 32.5365 35.5093 32.966 33.3215C33.0806 32.8151 33.0535 32.2862 32.8875 31.7946C32.7216 31.3031 32.4235 30.8684 32.027 30.5397C31.4627 30.0526 30.7343 29.7748 30.1068 30.1978C29.6858 30.4841 29.5047 31.1294 29.2268 31.5951C28.6668 31.1678 28.8057 30.0013 29.7321 29.4031C30.9953 28.5698 32.928 29.2706 33.627 30.8773C34.6166 33.1591 34.0818 35.2358 32.5028 36.9963C29.9132 39.8849 26.5277 40.7695 22.8181 40.5729C21.8365 40.5147 20.868 40.3147 19.9421 39.9789C16.7588 38.8252 15.5082 34.7145 17.622 32.0524C17.4238 32.743 17.3734 33.4686 17.4744 34.1805C17.5753 34.8925 17.8252 35.5743 18.2073 36.1802C18.3462 35.4751 18.4683 34.847 18.5905 34.2188H18.8431C18.7344 35.2537 18.9579 36.2965 19.4802 37.1922C20.0025 38.0878 20.7958 38.7885 21.742 39.1899C22.6882 39.5912 23.7368 39.6719 24.7319 39.4199C25.7269 39.1679 26.6152 38.5966 27.2646 37.7911C27.9804 36.8724 28.2289 35.8511 27.6857 34.7444C27.5525 34.3638 27.3048 34.0353 26.9777 33.8052C26.6505 33.5752 26.2604 33.4553 25.8624 33.4625C25.0413 33.4967 24.6623 34.1077 24.4686 34.8769Z" fill="#63AB45"/>
<path d="M18.2662 0C20.0937 0.739243 20.8853 2.35874 20.3716 4.02951C20.1442 4.75593 19.8832 5.47381 19.6979 6.20878C19.6681 6.56968 19.6837 6.93296 19.7442 7.28987C20.1653 6.73437 20.4727 6.30279 20.7885 5.87121C20.6158 7.15313 20.7211 8.23423 21.6686 9.16576C19.5211 8.94356 18.3547 7.41807 18.6957 5.31999C18.7863 4.8292 18.9145 4.3463 19.0789 3.87569C19.6558 2.11518 19.5547 1.53404 18.2662 0Z" fill="#63AB45"/>
<path d="M19.2852 9.22987C17.2767 9.25551 16.7588 8.68719 16.9567 6.89249C17.0788 5.8114 17.083 4.8115 15.8661 4.23036C16.1954 4.18255 16.5311 4.2457 16.8216 4.41011C17.1122 4.57452 17.3415 4.83111 17.4746 5.14053C17.6649 5.50318 17.7796 5.90175 17.8115 6.31136C17.8199 6.87999 17.9572 7.439 18.2128 7.9451C18.4684 8.45121 18.8353 8.89082 19.2852 9.22987Z" fill="#63AB45"/>
<path d="M23.6307 37.9791C21.5253 38.1586 19.58 35.9451 20.6116 33.3428C20.919 34.1975 21.1 35.1888 21.6053 35.958C22.1106 36.7271 22.9654 37.3125 23.6307 37.9791Z" fill="#63AB45"/>
<path d="M22.9865 9.27257C22.8502 9.08959 22.6965 8.9207 22.5275 8.76835C21.8285 8.27268 21.6854 7.73426 22.0685 6.90101C22.3128 6.39251 22.2117 5.71736 22.2622 5.16614C23.1759 5.77292 23.5971 7.70863 22.9865 9.27257Z" fill="#63AB45"/>
<path d="M17.5083 10.0118C16.763 10.4049 16.1609 10.5417 15.6177 9.98619C15.1377 9.49051 15.1587 8.55472 15.7609 7.51208C15.6261 8.9222 16.1862 9.69562 17.5083 10.0118Z" fill="#63AB45"/>
<path d="M7.44885 14.3875C5.59191 13.738 4.16867 12.7466 3.2381 11.0502L7.44885 14.3875Z" fill="#63AB45"/>
<path d="M36.2629 10.8536C35.873 11.7294 35.2909 12.5032 34.5611 13.1157C33.8313 13.7282 32.9731 14.1632 32.0522 14.3875C32.7933 13.8576 33.5681 13.3619 34.2628 12.7765C34.9576 12.1911 35.6018 11.486 36.2629 10.8536Z" fill="#63AB45"/>
</svg>
