<svg width="30" height="30" viewBox="0 0 30 30" fill="none" xmlns="http://www.w3.org/2000/svg">
<path d="M22.5 15.7179C22.5 15.3401 22.5 15.1511 22.552 14.9828C22.7032 14.4934 23.1017 14.3035 23.5011 14.1047C23.9499 13.8811 24.1744 13.7694 24.3968 13.7497C24.6491 13.7274 24.9021 13.7869 25.1179 13.9192C25.404 14.0949 25.6035 14.4284 25.8078 14.6996C26.751 15.9524 27.2228 16.5788 27.3953 17.2694C27.5346 17.8268 27.5346 18.4099 27.3953 18.9673C27.1435 19.9746 26.3483 20.8193 25.7596 21.6009C25.4585 22.0009 25.308 22.2008 25.1179 22.3174C24.9021 22.4498 24.6491 22.5093 24.3968 22.4869C24.1744 22.4673 23.9499 22.3555 23.5011 22.1319C23.1017 21.9331 22.7032 21.7432 22.552 21.2539C22.5 21.0855 22.5 20.8965 22.5 20.5188V15.7179Z" stroke="white" stroke-width="1.5"/>
<path d="M7.49973 15.7181C7.49973 15.2421 7.4875 14.8146 7.13567 14.48C7.00769 14.3584 6.83802 14.2737 6.4987 14.1049C6.04983 13.8814 5.82539 13.7696 5.603 13.7499C4.93579 13.6909 4.57682 14.1889 4.19204 14.6997C3.24872 15.9525 2.77705 16.5787 2.60447 17.2695C2.46518 17.8269 2.46518 18.4097 2.60447 18.9672C2.85619 19.9746 3.65147 20.8191 4.24013 21.6007C4.61118 22.0935 4.96563 22.5431 5.603 22.4867C5.82539 22.4671 6.04983 22.3554 6.4987 22.1319C6.83802 21.9627 7.00769 21.8782 7.13567 21.7566C7.4875 21.4221 7.49973 20.9944 7.49973 20.5186V15.7181Z" stroke="white" stroke-width="1.5"/>
<path d="M24.9989 13.7448V12.3391C24.9989 6.90479 20.522 2.49939 14.9995 2.49939C9.4769 2.49939 5 6.90479 5 12.3391V13.7448" stroke="white" stroke-width="1.5" stroke-linecap="square" stroke-linejoin="round"/>
<path d="M14.9971 16.824C13.44 16.0002 9.99713 14.5985 8.41786 15.0254C8.11816 15.1505 7.49756 15.5815 7.49756 17.0236L7.61728 24.4952C7.62468 24.9574 7.98257 25.3361 8.43511 25.4C9.97565 25.6177 12.5997 26.2419 14.9971 27.5002M14.9971 16.824V27.5002M14.9971 16.824C16.5542 16.0002 19.9985 14.5985 21.5779 15.0254C21.8775 15.1505 22.4981 15.5815 22.4981 17.0236L22.3784 24.4952C22.371 24.9574 22.0131 25.3361 21.5606 25.4C20.02 25.6177 17.3945 26.2419 14.9971 27.5002" stroke="white" stroke-width="1.5" stroke-linecap="round" stroke-linejoin="round"/>
</svg>
