<svg width="30" height="30" viewBox="0 0 30 30" fill="none" xmlns="http://www.w3.org/2000/svg">
<path d="M15 28.3333C22.3638 28.3333 28.3333 22.3638 28.3333 15C28.3333 7.63619 22.3638 1.66666 15 1.66666C7.63616 1.66666 1.66663 7.63619 1.66663 15C1.66663 22.3638 7.63616 28.3333 15 28.3333Z" stroke="white" stroke-width="1.5"/>
<path d="M8.99997 21.6667C12.1089 18.4104 17.8576 18.2571 21 21.6667M18.3268 11.6667C18.3268 13.5076 16.8322 15 14.9886 15C13.1452 15 11.6506 13.5076 11.6506 11.6667C11.6506 9.82573 13.1452 8.33334 14.9886 8.33334C16.8322 8.33334 18.3268 9.82573 18.3268 11.6667Z" stroke="white" stroke-width="1.5" stroke-linecap="round"/>
</svg>
