<svg width="26" height="26" viewBox="0 0 26 26" fill="none" xmlns="http://www.w3.org/2000/svg">
<path d="M1.33337 20C1.33337 18.2029 1.33337 17.3042 1.73789 16.6441C1.96424 16.2747 2.27479 15.9642 2.64416 15.7378C3.30427 15.3333 4.20286 15.3333 6.00004 15.3333C7.79722 15.3333 8.69581 15.3333 9.35592 15.7378C9.72529 15.9642 10.0358 16.2747 10.2622 16.6441C10.6667 17.3042 10.6667 18.2029 10.6667 20C10.6667 21.7971 10.6667 22.6958 10.2622 23.3559C10.0358 23.7253 9.72529 24.0359 9.35592 24.2622C8.69581 24.6667 7.79722 24.6667 6.00004 24.6667C4.20286 24.6667 3.30427 24.6667 2.64416 24.2622C2.27479 24.0359 1.96424 23.7253 1.73789 23.3559C1.33337 22.6958 1.33337 21.7971 1.33337 20Z" stroke="white" stroke-width="1.5"/>
<path d="M15.3334 20C15.3334 18.2029 15.3334 17.3042 15.7379 16.6441C15.9642 16.2747 16.2748 15.9642 16.6441 15.7378C17.3042 15.3333 18.2029 15.3333 20 15.3333C21.7972 15.3333 22.6959 15.3333 23.356 15.7378C23.7253 15.9642 24.0359 16.2747 24.2622 16.6441C24.6667 17.3042 24.6667 18.2029 24.6667 20C24.6667 21.7971 24.6667 22.6958 24.2622 23.3559C24.0359 23.7253 23.7253 24.0359 23.356 24.2622C22.6959 24.6667 21.7972 24.6667 20 24.6667C18.2029 24.6667 17.3042 24.6667 16.6441 24.2622C16.2748 24.0359 15.9642 23.7253 15.7379 23.3559C15.3334 22.6958 15.3334 21.7971 15.3334 20Z" stroke="white" stroke-width="1.5"/>
<path d="M1.33337 6.00001C1.33337 4.20283 1.33337 3.30424 1.73789 2.64413C1.96424 2.27476 2.27479 1.96421 2.64416 1.73786C3.30427 1.33334 4.20286 1.33334 6.00004 1.33334C7.79722 1.33334 8.69581 1.33334 9.35592 1.73786C9.72529 1.96421 10.0358 2.27476 10.2622 2.64413C10.6667 3.30424 10.6667 4.20283 10.6667 6.00001C10.6667 7.79719 10.6667 8.69578 10.2622 9.35589C10.0358 9.72526 9.72529 10.0358 9.35592 10.2622C8.69581 10.6667 7.79722 10.6667 6.00004 10.6667C4.20286 10.6667 3.30427 10.6667 2.64416 10.2622C2.27479 10.0358 1.96424 9.72526 1.73789 9.35589C1.33337 8.69578 1.33337 7.79719 1.33337 6.00001Z" stroke="white" stroke-width="1.5"/>
<path d="M15.3334 6.00001C15.3334 4.20283 15.3334 3.30424 15.7379 2.64413C15.9642 2.27476 16.2748 1.96421 16.6441 1.73786C17.3042 1.33334 18.2029 1.33334 20 1.33334C21.7972 1.33334 22.6959 1.33334 23.356 1.73786C23.7253 1.96421 24.0359 2.27476 24.2622 2.64413C24.6667 3.30424 24.6667 4.20283 24.6667 6.00001C24.6667 7.79719 24.6667 8.69578 24.2622 9.35589C24.0359 9.72526 23.7253 10.0358 23.356 10.2622C22.6959 10.6667 21.7972 10.6667 20 10.6667C18.2029 10.6667 17.3042 10.6667 16.6441 10.2622C16.2748 10.0358 15.9642 9.72526 15.7379 9.35589C15.3334 8.69578 15.3334 7.79719 15.3334 6.00001Z" stroke="white" stroke-width="1.5"/>
</svg>
