<svg width="30" height="28" viewBox="0 0 30 28" fill="none" xmlns="http://www.w3.org/2000/svg">
<path d="M1.3158 26.9918C3.08722 27.123 4.57766 25.6316 5.87719 25.6316C7.17674 25.6316 9.28648 27.0072 10.4386 26.9918C11.8211 27.0034 13.4406 25.6316 15 25.6316C16.5595 25.6316 18.1788 27.0034 19.5614 26.9918C21.3328 27.123 22.8233 25.6316 24.1229 25.6316C25.4223 25.6316 27.5321 27.0072 28.6842 26.9918" stroke="white" stroke-width="1.5" stroke-linecap="round" stroke-linejoin="round"/>
<path d="M6.78948 25.6316C4.84925 23.2144 3.48181 20.1207 2.89952 18.4813C2.71487 17.9614 2.62256 17.7016 2.72977 17.4531C2.83697 17.2047 3.0999 17.0883 3.62573 16.8553L13.8741 12.3157C14.4286 12.0701 14.7058 11.9474 15 11.9474C15.2942 11.9474 15.5715 12.0701 16.1259 12.3157L26.3743 16.8553C26.9001 17.0883 27.1631 17.2047 27.2702 17.4531C27.3775 17.7016 27.2851 17.9614 27.1005 18.4813C26.5181 20.1207 25.1508 23.2144 23.2105 25.6316" stroke="white" stroke-width="1.5" stroke-linecap="round" stroke-linejoin="round"/>
<path d="M6.78947 15.3684L7.08493 11.5275C7.26935 9.12999 7.36157 7.9312 8.14854 7.20245C8.93551 6.47368 10.1378 6.47368 12.5425 6.47368H17.4575C19.8621 6.47368 21.0644 6.47368 21.8514 7.20245C22.6384 7.9312 22.7306 9.12999 22.9151 11.5275L23.2105 15.3684" stroke="white" stroke-width="1.5" stroke-linecap="round" stroke-linejoin="round"/>
<path d="M10.2105 6.47368L10.4452 4.59607C10.6593 2.88378 10.7663 2.02764 11.3483 1.51381C11.9304 1 12.7931 1 14.5187 1H15.4813C17.2069 1 18.0696 1 18.6516 1.51381C19.2338 2.02764 19.3408 2.88378 19.5548 4.59607L19.7895 6.47368" stroke="white" stroke-width="1.5" stroke-linecap="round" stroke-linejoin="round"/>
</svg>
