<svg width="1760" height="1030" viewBox="0 0 1760 1030" fill="none" xmlns="http://www.w3.org/2000/svg">
<g clip-path="url(#clip0_79_900)">
<rect width="1440" height="954" transform="translate(160)" fill="#1D231F"/>
<g opacity="0.08" filter="url(#filter0_f_79_900)">
<circle cx="754.5" cy="301.5" r="473.5" fill="#EDAEB8"/>
</g>
<g opacity="0.08" filter="url(#filter1_f_79_900)">
<circle cx="1293.5" cy="185.5" r="473.5" fill="#CAA5E3"/>
</g>
<g opacity="0.08" clip-path="url(#clip1_79_900)">
<line x1="239.5" y1="764" x2="239.5" y2="-6.3976e-08" stroke="#EFEFEF"/>
<line x1="319.5" y1="764" x2="319.5" y2="-6.3976e-08" stroke="#EFEFEF"/>
<line x1="399.5" y1="764" x2="399.5" y2="-6.3976e-08" stroke="#EFEFEF"/>
<line x1="479.5" y1="764" x2="479.501" y2="-6.3976e-08" stroke="#EFEFEF"/>
<line x1="559.5" y1="764" x2="559.501" y2="-6.3976e-08" stroke="#EFEFEF"/>
<line x1="639.5" y1="764" x2="639.501" y2="-6.3976e-08" stroke="#EFEFEF"/>
<line x1="719.5" y1="764" x2="719.501" y2="-6.3976e-08" stroke="#EFEFEF"/>
<line x1="799.5" y1="764" x2="799.501" y2="-6.3976e-08" stroke="#EFEFEF"/>
<line x1="879.5" y1="764" x2="879.501" y2="-6.3976e-08" stroke="#EFEFEF"/>
<line x1="959.5" y1="764" x2="959.501" y2="-6.3976e-08" stroke="#EFEFEF"/>
<line x1="1039.5" y1="764" x2="1039.5" y2="-6.3976e-08" stroke="#EFEFEF"/>
<line x1="1119.5" y1="764" x2="1119.5" y2="-6.3976e-08" stroke="#EFEFEF"/>
<line x1="1199.5" y1="764" x2="1199.5" y2="-6.3976e-08" stroke="#EFEFEF"/>
<line x1="1279.5" y1="764" x2="1279.5" y2="-6.3976e-08" stroke="#EFEFEF"/>
<line x1="1359.5" y1="764" x2="1359.5" y2="-6.3976e-08" stroke="#EFEFEF"/>
<line x1="1439.5" y1="764" x2="1439.5" y2="-6.3976e-08" stroke="#EFEFEF"/>
<line x1="1519.5" y1="764" x2="1519.5" y2="-6.3976e-08" stroke="#EFEFEF"/>
<line x1="1599.5" y1="764" x2="1599.5" y2="-6.3976e-08" stroke="#EFEFEF"/>
<line x1="16" y1="-0.5" x2="1740" y2="-0.499849" stroke="#EFEFEF"/>
<line x1="16" y1="79.5" x2="1740" y2="79.5002" stroke="#EFEFEF"/>
<line x1="16" y1="159.5" x2="1740" y2="159.5" stroke="#EFEFEF"/>
<line x1="16" y1="239.5" x2="1740" y2="239.501" stroke="#EFEFEF"/>
<line x1="16" y1="319.5" x2="1740" y2="319.501" stroke="#EFEFEF"/>
<line x1="16" y1="399.5" x2="1740" y2="399.501" stroke="#EFEFEF"/>
<line x1="16" y1="479.501" x2="1740" y2="479.501" stroke="#EFEFEF"/>
<line x1="16" y1="559.501" x2="1740" y2="559.501" stroke="#EFEFEF"/>
<line x1="16" y1="639.501" x2="1740" y2="639.501" stroke="#EFEFEF"/>
<line x1="16" y1="719.501" x2="1740" y2="719.501" stroke="#EFEFEF"/>
</g>
</g>
<g opacity="0.08" clip-path="url(#clip2_79_900)">
<line x1="79.5" y1="1004" x2="79.5" y2="240" stroke="#EFEFEF"/>
<line x1="159.5" y1="1004" x2="159.5" y2="240" stroke="#EFEFEF"/>
<line x1="239.5" y1="1004" x2="239.5" y2="240" stroke="#EFEFEF"/>
<line x1="319.5" y1="1004" x2="319.5" y2="240" stroke="#EFEFEF"/>
<line x1="399.5" y1="1004" x2="399.5" y2="240" stroke="#EFEFEF"/>
<line x1="479.5" y1="1004" x2="479.501" y2="240" stroke="#EFEFEF"/>
<line x1="559.5" y1="1004" x2="559.501" y2="240" stroke="#EFEFEF"/>
<line x1="639.5" y1="1004" x2="639.501" y2="240" stroke="#EFEFEF"/>
<line x1="719.5" y1="1004" x2="719.501" y2="240" stroke="#EFEFEF"/>
<line x1="799.5" y1="1004" x2="799.501" y2="240" stroke="#EFEFEF"/>
<line x1="879.5" y1="1004" x2="879.501" y2="240" stroke="#EFEFEF"/>
<line x1="959.5" y1="1004" x2="959.501" y2="240" stroke="#EFEFEF"/>
<line x1="1039.5" y1="1004" x2="1039.5" y2="240" stroke="#EFEFEF"/>
<line x1="1119.5" y1="1004" x2="1119.5" y2="240" stroke="#EFEFEF"/>
<line x1="1199.5" y1="1004" x2="1199.5" y2="240" stroke="#EFEFEF"/>
<line x1="1279.5" y1="1004" x2="1279.5" y2="240" stroke="#EFEFEF"/>
<line x1="1359.5" y1="1004" x2="1359.5" y2="240" stroke="#EFEFEF"/>
<line x1="1439.5" y1="1004" x2="1439.5" y2="240" stroke="#EFEFEF"/>
<line x1="1519.5" y1="1004" x2="1519.5" y2="240" stroke="#EFEFEF"/>
<line x1="1599.5" y1="1004" x2="1599.5" y2="240" stroke="#EFEFEF"/>
<line x1="1679.5" y1="1004" x2="1679.5" y2="240" stroke="#EFEFEF"/>
<line x1="1759.5" y1="1004" x2="1759.5" y2="240" stroke="#EFEFEF"/>
<line x1="16" y1="319.5" x2="1740" y2="319.5" stroke="#EFEFEF"/>
<line x1="16" y1="399.5" x2="1740" y2="399.5" stroke="#EFEFEF"/>
<line x1="16" y1="479.5" x2="1740" y2="479.501" stroke="#EFEFEF"/>
<line x1="16" y1="559.5" x2="1740" y2="559.501" stroke="#EFEFEF"/>
<line x1="16" y1="639.5" x2="1740" y2="639.501" stroke="#EFEFEF"/>
<line x1="16" y1="719.501" x2="1740" y2="719.501" stroke="#EFEFEF"/>
<line x1="16" y1="799.501" x2="1740" y2="799.501" stroke="#EFEFEF"/>
<line x1="16" y1="879.501" x2="1740" y2="879.501" stroke="#EFEFEF"/>
<line x1="16" y1="959.501" x2="1740" y2="959.501" stroke="#EFEFEF"/>
</g>
<path d="M878.5 275.75C878.434 275.75 878.37 275.776 878.323 275.823C878.276 275.87 878.25 275.934 878.25 276C878.25 276.066 878.276 276.13 878.323 276.177C878.37 276.224 878.434 276.25 878.5 276.25H879.5C879.566 276.25 879.63 276.224 879.677 276.177C879.724 276.13 879.75 276.066 879.75 276C879.75 275.934 879.724 275.87 879.677 275.823C879.63 275.776 879.566 275.75 879.5 275.75H878.5ZM880.75 275.75C880.684 275.75 880.62 275.776 880.573 275.823C880.526 275.87 880.5 275.934 880.5 276C880.5 276.066 880.526 276.13 880.573 276.177C880.62 276.224 880.684 276.25 880.75 276.25H881.75C881.816 276.25 881.88 276.224 881.927 276.177C881.974 276.13 882 276.066 882 276C882 275.934 881.974 275.87 881.927 275.823C881.88 275.776 881.816 275.75 881.75 275.75H880.75ZM879.74 277.126C879.751 277.194 879.694 277.25 879.625 277.25H879.458C879.49 277.183 879.504 277.11 879.499 277.036C879.495 276.962 879.472 276.891 879.432 276.829C879.393 276.767 879.338 276.715 879.273 276.68C879.209 276.644 879.136 276.625 879.062 276.625C878.989 276.625 878.916 276.644 878.852 276.68C878.787 276.715 878.732 276.767 878.693 276.829C878.653 276.891 878.63 276.962 878.626 277.036C878.621 277.11 878.635 277.183 878.667 277.25H878.375C878.306 277.25 878.249 277.194 878.26 277.126C878.289 276.95 878.379 276.791 878.515 276.676C878.65 276.561 878.822 276.498 879 276.498C879.178 276.498 879.35 276.561 879.485 276.676C879.621 276.791 879.711 276.95 879.74 277.126ZM881.981 277.126C881.992 277.194 881.935 277.25 881.866 277.25H881.583C881.615 277.183 881.629 277.11 881.624 277.036C881.62 276.962 881.597 276.891 881.557 276.829C881.518 276.767 881.463 276.715 881.398 276.68C881.334 276.644 881.261 276.625 881.188 276.625C881.114 276.625 881.041 276.644 880.977 276.68C880.912 276.715 880.857 276.767 880.818 276.829C880.778 276.891 880.755 276.962 880.751 277.036C880.746 277.11 880.76 277.183 880.792 277.25H880.616C880.547 277.25 880.49 277.194 880.501 277.126C880.53 276.95 880.62 276.791 880.756 276.676C880.891 276.561 881.063 276.498 881.241 276.498C881.419 276.498 881.591 276.561 881.726 276.676C881.862 276.791 881.952 276.95 881.981 277.126Z" fill="black"/>
<path d="M879 276.85C879 276.868 878.995 276.886 878.986 276.901C878.977 276.916 878.964 276.929 878.948 276.938C878.932 276.946 878.914 276.95 878.897 276.95C878.879 276.949 878.861 276.944 878.846 276.934C878.817 276.985 878.806 277.044 878.816 277.102C878.825 277.159 878.855 277.212 878.9 277.25H879.225C879.268 277.213 879.298 277.163 879.309 277.106C879.32 277.05 879.312 276.992 879.285 276.941C879.258 276.891 879.214 276.851 879.162 276.829C879.109 276.807 879.05 276.803 878.995 276.819C878.998 276.829 879 276.839 879 276.85ZM881.125 276.85C881.125 276.868 881.12 276.886 881.111 276.901C881.102 276.916 881.089 276.929 881.073 276.938C881.057 276.946 881.039 276.95 881.022 276.95C881.004 276.949 880.986 276.944 880.971 276.934C880.942 276.985 880.931 277.044 880.941 277.102C880.95 277.159 880.98 277.212 881.025 277.25H881.35C881.393 277.213 881.423 277.163 881.434 277.106C881.445 277.05 881.437 276.992 881.41 276.941C881.383 276.891 881.339 276.851 881.287 276.829C881.234 276.807 881.175 276.803 881.12 276.819C881.123 276.829 881.125 276.839 881.125 276.85ZM880.125 279C880.048 279 879.972 279.024 879.909 279.069C879.845 279.114 879.797 279.177 879.772 279.25H880.479C880.453 279.177 880.405 279.114 880.342 279.069C880.278 279.024 880.203 279 880.125 279ZM879.553 278.649C879.526 278.668 879.508 278.697 879.502 278.729C879.497 278.762 879.505 278.795 879.524 278.822C879.543 278.849 879.572 278.867 879.604 278.873C879.637 278.879 879.67 278.871 879.697 278.853L879.7 278.851L879.718 278.841C879.743 278.826 879.769 278.814 879.797 278.805C879.902 278.767 880.013 278.749 880.125 278.75C880.271 278.75 880.382 278.778 880.454 278.805C880.487 278.817 880.52 278.832 880.55 278.85L880.553 278.853C880.566 278.862 880.582 278.869 880.598 278.873C880.614 278.876 880.63 278.877 880.646 278.874C880.663 278.871 880.678 278.865 880.692 278.857C880.706 278.848 880.718 278.836 880.728 278.823C880.737 278.81 880.744 278.795 880.748 278.778C880.751 278.762 880.752 278.746 880.749 278.73C880.746 278.713 880.74 278.698 880.732 278.684C880.723 278.67 880.711 278.658 880.698 278.649L880.697 278.648L880.696 278.647L880.693 278.645L880.653 278.621C880.616 278.602 880.579 278.585 880.541 278.571C880.407 278.523 880.267 278.499 880.125 278.5C879.946 278.5 879.807 278.535 879.71 278.57C879.657 278.59 879.606 278.615 879.558 278.645L879.555 278.647L879.553 278.648L879.553 278.649ZM879.695 277.924L879.95 277.131C880.01 276.956 880.27 276.956 880.325 277.131L880.59 277.924C880.645 278.085 880.515 278.25 880.335 278.25H879.95C879.77 278.25 879.64 278.085 879.695 277.924Z" fill="black"/>
<path d="M880.378 272.623C880.226 272.674 880.062 272.676 879.909 272.63C879.643 272.509 879.348 272.471 879.06 272.522C878.773 272.573 878.508 272.709 878.299 272.914L878.298 272.915L877.798 273.41L877.797 273.412C877.718 273.491 877.626 273.557 877.527 273.608L877.522 273.611L877.32 273.714C877.036 273.855 876.806 274.085 876.665 274.369C876.524 274.654 876.479 274.976 876.538 275.288L876.76 276.488C876.597 276.698 876.5 276.963 876.5 277.25C876.5 277.588 876.634 277.894 876.851 278.119L876.933 279.169L876.935 279.184C876.963 279.44 877.034 279.68 877.141 279.898C875.854 280.765 875 282.186 875 283.809V285.576C875 286.659 875.913 287.5 876.994 287.5H883.257C884.337 287.5 885.25 286.659 885.25 285.576V283.809C885.25 282.185 884.395 280.763 883.107 279.897C883.219 279.669 883.289 279.422 883.315 279.169L883.397 278.121C883.615 277.896 883.75 277.589 883.75 277.25C883.75 276.988 883.668 276.733 883.514 276.52L883.741 275.286L883.744 275.272C883.841 274.645 883.53 274.004 882.943 273.713H882.941L882.733 273.608C882.636 273.561 882.547 273.497 882.471 273.42L882.464 273.412L882.059 273.007C881.842 272.792 881.57 272.642 881.274 272.574C880.977 272.506 880.667 272.523 880.378 272.622M878.216 280.397C878.381 280.517 878.565 280.609 878.759 280.668C878.832 281.351 879.42 281.875 880.125 281.875C880.83 281.875 881.419 281.351 881.493 280.67C881.687 280.61 881.871 280.518 882.036 280.399C882.074 280.438 882.118 280.472 882.166 280.498C883.424 281.16 884.25 282.404 884.25 283.809V284.145H883.659C883.584 284.002 883.485 283.874 883.367 283.766C883.049 283.475 882.527 283.27 881.708 283.432L880.347 283.685L878.587 283.379C877.759 283.215 877.227 283.454 876.905 283.772C876.767 283.909 876.656 284.071 876.576 284.25H876V283.808C876 282.404 876.825 281.162 878.082 280.499C878.132 280.472 878.177 280.438 878.215 280.397M877.302 284.25H877.151C877.181 284.209 877.216 284.168 877.256 284.128C877.453 283.933 877.815 283.736 878.491 283.87L878.497 283.872L878.934 283.947L877.302 284.25ZM876 284.75H877.325C877.34 284.75 877.355 284.749 877.371 284.746L881.8 283.924L881.804 283.923C882.49 283.787 882.844 283.966 883.029 284.135C883.093 284.194 883.142 284.257 883.179 284.314L877.74 286.5H876.994C876.422 286.5 876 286.064 876 285.576V284.75ZM879.081 286.5L880.107 286.088L881.156 286.5H879.081ZM884.25 285.576C884.25 286.064 883.829 286.5 883.257 286.5H882.524L880.783 285.816L883.608 284.68C883.63 284.671 883.65 284.659 883.669 284.645H884.25V285.576ZM880.934 280.752H880.969C880.915 280.933 880.804 281.092 880.651 281.205C880.499 281.317 880.314 281.377 880.125 281.375C879.936 281.377 879.751 281.317 879.599 281.205C879.446 281.092 879.335 280.933 879.281 280.752H880.934ZM878.28 274.944C878.891 274.8 879.516 274.73 880.144 274.737C880.776 274.727 881.408 274.801 882.021 274.957V275.382C882.02 275.499 882.045 275.615 882.093 275.722C882.141 275.829 882.211 275.924 882.299 276.002L882.393 276.087C882.417 276.108 882.436 276.135 882.449 276.164C882.461 276.194 882.467 276.226 882.467 276.258C882.435 276.723 882.407 277.188 882.384 277.653L882.383 277.658C882.359 278.109 882.335 278.559 882.303 279.002C882.275 279.344 882.118 279.663 881.865 279.895C881.611 280.127 881.28 280.254 880.936 280.252H879.325C878.982 280.254 878.651 280.128 878.398 279.897C878.145 279.666 877.988 279.348 877.958 279.007C877.922 278.462 877.895 277.915 877.878 277.369L877.866 277.107V277.106C877.855 276.824 877.842 276.542 877.827 276.259V276.255C877.826 276.222 877.831 276.19 877.843 276.161C877.856 276.131 877.875 276.105 877.899 276.084L877.989 276.005C878.077 275.926 878.147 275.831 878.195 275.723C878.243 275.616 878.268 275.5 878.268 275.382L878.28 274.944Z" fill="black"/>
<defs>
<filter id="filter0_f_79_900" x="-143" y="-596" width="1795" height="1795" filterUnits="userSpaceOnUse" color-interpolation-filters="sRGB">
<feFlood flood-opacity="0" result="BackgroundImageFix"/>
<feBlend mode="normal" in="SourceGraphic" in2="BackgroundImageFix" result="shape"/>
<feGaussianBlur stdDeviation="212" result="effect1_foregroundBlur_79_900"/>
</filter>
<filter id="filter1_f_79_900" x="396" y="-712" width="1795" height="1795" filterUnits="userSpaceOnUse" color-interpolation-filters="sRGB">
<feFlood flood-opacity="0" result="BackgroundImageFix"/>
<feBlend mode="normal" in="SourceGraphic" in2="BackgroundImageFix" result="shape"/>
<feGaussianBlur stdDeviation="212" result="effect1_foregroundBlur_79_900"/>
</filter>
<clipPath id="clip0_79_900">
<rect width="1440" height="954" fill="white" transform="translate(160)"/>
</clipPath>
<clipPath id="clip1_79_900">
<rect width="1760" height="762" fill="white"/>
</clipPath>
<clipPath id="clip2_79_900">
<rect width="1760" height="785.041" fill="white" transform="translate(0 244.838)"/>
</clipPath>
</defs>
</svg>
